# xmcd CD database file
#
# Track frame offsets:
#	150
#	18876
#	35543
#	49285
#	68675
#	82596
#	103532
#	118169
#	134121
#	160275
#	176248
#
# Disc length: 2521 seconds
#
# Revision: 0
# Processed by: cddbd v1.5.2PL0 Copyright (c) Steve Scherf et al.
# Submitted via: CDex 1.51
#
DISCID=9109d70b
DTITLE=Stan Laferrière Tentet - "Ces quelques fleurs"
DYEAR=1996
DGENRE=Jazz
TTITLE0=Fascinating rhythm
TTITLE1=Take the "A" train
TTITLE2=Gee baby...
TTITLE3=Giant steps
TTITLE4=Skylark
TTITLE5=Lullaby of birdland
TTITLE6=Cheek to cheek
TTITLE7=Tenderly
TTITLE8=Gone with the wind
TTITLE9=Love is here to stay
TTITLE10=Ces quelques fleurs
EXTD=YEAR: 1996
EXTT0=
EXTT1=
EXTT2=
EXTT3=
EXTT4=
EXTT5=
EXTT6=
EXTT7=
EXTT8=
EXTT9=
EXTT10=
PLAYORDER=
